<?xml version="1.0" encoding="utf-8"?>
<!-- Generator: Adobe Illustrator 22.0.0, SVG Export Plug-In . SVG Version: 6.00 Build 0)  -->
<svg version="1.1" id="Capa_1" xmlns="http://www.w3.org/2000/svg" xmlns:xlink="http://www.w3.org/1999/xlink" x="0px" y="0px"
	 viewBox="0 0 1024 340" style="enable-background:new 0 0 1024 340;" xml:space="preserve">
<style type="text/css">
	.st0{stroke:#FFFFFF;stroke-miterlimit:10;}
</style>
<path class="st0" d="M15,329.7c0-2.4,0-4,0-5.7c0-102.8,0-205.7-0.1-308.5c0-4.6,1.2-5.7,5.7-5.6c14.7,0.3,29.3,0.2,44,0.1
	c2.8,0,4.6,0.8,6.4,2.9c32.1,38.3,64.2,76.5,96.3,114.7c36.3,43.2,72.5,86.4,108.8,129.6c0.7,0.9,1.5,1.7,2.3,2.7
	c0.5,0.7,1.1,1.4,2,1.1c1.1-0.3,0.7-1.4,0.7-2.1c0-1,0-2,0-3c0-73.5,0-147-0.1-220.5c0-3.4,1-4.9,4.2-6.1
	c15.3-5.9,30.6-12,45.8-18.2c2.8-1.2,3.6-0.9,3.3,2.1c-0.1,1,0,2,0,3c0,102.7,0,205.4,0.1,308c0,4.5-1,5.8-5.7,5.7
	c-14.7-0.3-29.3-0.2-44-0.1c-2.7,0-4.5-0.8-6.4-2.9c-42.4-50.6-85-101.2-127.5-151.8c-26-31-52-61.9-78-92.9c-1.2-1.4-2.4-2.7-3.5-4
	c-2.1,1-1.2,2.5-1.2,3.7c0,73.8-0.1,147.7,0.1,221.5c0,3.7-0.9,5.6-4.5,7C47.6,316.6,31.7,323.1,15,329.7z"/>
<path class="st0" d="M1003,10.1c-6.9,13.8-13.4,26.9-19.9,40c-1.4,2.8-3.8,2.2-6.1,2.2c-52.7,0-105.3-0.1-158,0.1
	c-11.3,0-22.6,0.9-33.5,4.8c-21.3,7.5-32.7,23.1-36.8,44.7c-1.3,6.9-1.8,13.8-1.8,20.9c0.1,32.8,0,65.7,0.1,98.5
	c0,10.2,1.6,20.3,5.3,29.8c8.2,21.3,24.8,31.6,46.5,35.2c6.9,1.1,13.9,1.3,20.9,1.3c43-0.1,86-0.1,129,0.1c5.2,0,6.3-1.5,6.3-6.4
	c-0.2-28.3,0-56.7-0.2-85c0-3.8,1.2-5.5,4.7-6.8c15.2-5.8,30.4-11.9,45.5-18c3-1.2,4-1.1,4,2.5c-0.1,50.8-0.1,101.7,0,152.5
	c0,2.8-0.8,4.1-3.6,3.8c-1-0.1-2,0-3,0c-67,0-134,0-201,0c-19.3,0-38.2-2.9-55.8-11.2c-26.9-12.6-41.6-34.8-48-63.1
	c-2.7-11.8-3.6-23.7-3.6-35.7c0-34.2-0.1-68.3,0-102.5c0.1-18.8,2.8-37.2,10.6-54.5c11.8-26.2,32.6-41.4,59.8-48.5
	c11.6-3,23.5-4.4,35.6-4.4c65.3,0,130.7,0,196,0C998,10.1,1000,10.1,1003,10.1z"/>
<path class="st0" d="M363.7,9.9c12.9,3.3,24.9,6.4,36.9,9.6c12.9,3.4,25.7,6.8,38.6,10.1c3.3,0.9,5.9,2.2,8.2,5
	c26.2,31.7,52.5,63.2,78.8,94.9c2,2.4,3,2.6,5.2,0c26.4-31.7,52.9-63.4,79.4-95c1.4-1.6,2.6-3.3,4.9-4c25.7-6.8,51.4-13.6,77.9-20.7
	c-2.9,5.3-6.8,8.9-10.1,12.8c-39.9,47.9-80,95.8-120.1,143.6c-2.3,2.7-2.7,4.3-0.1,7.4c42.6,50.7,85,101.5,127.5,152.4
	c0.8,1,1.6,2,3.3,4.2c-7.5-1.9-13.6-3.4-19.7-5c-18.8-5-37.6-10-56.4-15c-2.8-0.7-5-2-7-4.4c-26.1-31.3-52.4-62.5-78.4-93.9
	c-2.9-3.5-4.2-4.1-7.5-0.2c-25.3,30.7-51,61-76.4,91.6c-3.2,3.9-6.8,6.2-11.8,7.5c-23.4,6-46.6,12.3-69.9,18.5
	c-0.8,0.2-1.6,0.6-2.7-0.2c6.7-8,13.3-16,20-24c36.9-44,73.8-88,110.8-131.9c2.5-2.9,1.8-4.5-0.4-7c-43-51.1-85.8-102.2-128.7-153.3
	C365.3,12.3,364.8,11.4,363.7,9.9z"/>
</svg>
