<svg id="Capa_1"
     data-name="Capa 1"
     xmlns="http://www.w3.org/2000/svg"
     viewBox="0 0 520.21 392.23">
  <defs>
    <style>.cls-1 {
      fill: #575756;
    }

    .cls-12, .cls-14, .cls-2 {
      font-size: 17.05px;
      font-family: Helvetica, Helvetica;
    }

    .cls-2, .cls-4, .cls-6 {
      fill: #35a8e0;
    }

    .cls-11, .cls-12, .cls-3 {
      fill: #ff7900;
    }

    .cls-13, .cls-14, .cls-5 {
      fill: #7f7f7f;
    }

    .cls-11, .cls-13, .cls-6, .cls-7, .cls-8 {
      fill-rule: evenodd;
    }

    .cls-7 {
      fill: #e9e8e7;
    }

    .cls-8, .cls-9 {
      fill: #3cbc2a;
    }

    .cls-10 {
      fill: #e84445;
    }</style>
  </defs>
  <title>energy-flow</title>
  <path class="cls-1"
        d="M305.27,252.9V148c0-2.71-4.2-2.71-4.2,0V252.9c0,2.71,4.2,2.71,4.2,0"
        transform="translate(-40.47 -4.36)"/>
  <path class="cls-1"
        d="M251.29,372.24H157.71c-11.12,0-22.47.67-33.57,0-8.53-.51-7.71-8.62-7.71-14.72V281.19c0-2.7-4.2-2.71-4.2,0v72.74c0,4.88-1,11.61,1.34,16.1,3.13,6,9,6.41,14.82,6.41h122.9c2.7,0,2.7-4.2,0-4.2"
        transform="translate(-40.47 -4.36)"/>
  <path class="cls-1"
        d="M353.77,376.44H473.19c3.75,0,8.32.57,11.9-.76,7.64-2.84,7.73-10.07,7.73-16.79v-77.7c0-2.7-4.2-2.71-4.2,0v80.19a19.21,19.21,0,0,1-.32,5.36c-1.86,6.29-8.34,5.5-13.42,5.5H353.77c-2.71,0-2.71,4.2,0,4.2"
        transform="translate(-40.47 -4.36)"/>
  <text class="cls-2"
        transform="translate(235.75 114.01) scale(1.01 1)">6.0 kW
  </text>
  <path class="cls-3"
        d="M401.29,373.13a9.69,9.69,0,1,1-9.69-9.69,9.69,9.69,0,0,1,9.69,9.69"
        transform="translate(-40.47 -4.36)"/>
  <path class="cls-3"
        d="M459.22,373.13a9.69,9.69,0,1,1-9.69-9.69,9.69,9.69,0,0,1,9.69,9.69"
        transform="translate(-40.47 -4.36)"/>
  <path class="cls-3"
        d="M499.65,345.37a9.69,9.69,0,1,1-9.69-9.69,9.69,9.69,0,0,1,9.69,9.69"
        transform="translate(-40.47 -4.36)"/>
  <path class="cls-3"
        d="M499.65,301.32a9.69,9.69,0,1,1-9.69-9.69,9.69,9.69,0,0,1,9.69,9.69"
        transform="translate(-40.47 -4.36)"/>
  <path class="cls-4"
        d="M314.3,231.48A11.26,11.26,0,1,1,303,220.22a11.26,11.26,0,0,1,11.26,11.26"
        transform="translate(-40.47 -4.36)"/>
  <path class="cls-4"
        d="M314.3,180.69A11.26,11.26,0,1,1,303,169.43a11.26,11.26,0,0,1,11.26,11.26"
        transform="translate(-40.47 -4.36)"/>
  <path class="cls-5"
        d="M218.35,380.29a5.54,5.54,0,1,1,5.54-5.54,5.54,5.54,0,0,1-5.54,5.54"
        transform="translate(-40.47 -4.36)"/>
  <path class="cls-5"
        d="M157.11,380.29a5.54,5.54,0,1,1,5.54-5.54,5.54,5.54,0,0,1-5.54,5.54"
        transform="translate(-40.47 -4.36)"/>
  <path class="cls-5"
        d="M113.56,345.89a5.54,5.54,0,1,1,5.53-5.54,5.54,5.54,0,0,1-5.53,5.54"
        transform="translate(-40.47 -4.36)"/>
  <path class="cls-5"
        d="M114.05,306.06a5.54,5.54,0,1,1,5.54-5.53,5.54,5.54,0,0,1-5.54,5.53"
        transform="translate(-40.47 -4.36)"/>
  <path class="cls-6"
        d="M302.84,148A71.84,71.84,0,1,1,374.68,76.2,71.85,71.85,0,0,1,302.84,148m0-137.68A65.84,65.84,0,1,0,368.67,76.2a65.84,65.84,0,0,0-65.83-65.84"
        transform="translate(-40.47 -4.36)"/>
  <path class="cls-7"
        d="M302.27,396.59a71.85,71.85,0,1,1,71.84-71.84,71.84,71.84,0,0,1-71.84,71.84m0-137.68a65.84,65.84,0,1,0,65.83,65.84,65.84,65.84,0,0,0-65.83-65.84"
        transform="translate(-40.47 -4.36)"/>
  <path class="cls-8"
        d="M303.1,396.59a71.85,71.85,0,1,1,71.84-71.84,71.85,71.85,0,0,1-71.84,71.84m0-137.68a65.84,65.84,0,1,0,65.84,65.84,65.84,65.84,0,0,0-65.84-65.84"
        transform="translate(-40.47 -4.36)"/>
  <path class="cls-9"
        d="M303.26,370.11c-5.18,0-10.35-.09-15.52,0a8.22,8.22,0,0,1-8.5-8.52c.06-3.32,0-6.65,0-10a2.33,2.33,0,0,0-.68-1.76,34.34,34.34,0,0,1-7.38-36.18,34.77,34.77,0,0,1,7.39-11.56,2.22,2.22,0,0,0,.67-1.67c0-3.36,0-6.72,0-10.08a8.11,8.11,0,0,1,6-8.21,8.32,8.32,0,0,1,2.44-.28q15.61,0,31.24,0a8.19,8.19,0,0,1,8.43,8.41c0,3.36,0,6.72,0,10.08a2.51,2.51,0,0,0,.74,1.84,34.13,34.13,0,0,1,9.18,18.56,33.74,33.74,0,0,1-2.91,19.9A35.75,35.75,0,0,1,328,349.9a2.23,2.23,0,0,0-.66,1.68c0,3.39,0,6.79,0,10.18a8,8,0,0,1-2.12,5.69,8.17,8.17,0,0,1-6.24,2.67c-5.24,0-10.48,0-15.71,0M334.11,326a30.94,30.94,0,0,0-33.53-30.78c-13.84,1.12-29.58,13.51-28,33.67a30.81,30.81,0,0,0,61.5-2.89m-51.47,27.79v.5c0,2.61-.06,5.21,0,7.81a4.54,4.54,0,0,0,4.72,4.57q15.9,0,31.82,0a4.55,4.55,0,0,0,4.71-4.77c0-2.44,0-4.88,0-7.32,0-.24.11-.52-.08-.71-13.73,8.94-27.41,8.9-41.19-.08m0-55.54c13.83-9,27.53-9,41.24-.06a1,1,0,0,0,.05-.2q0-3.71,0-7.41c0-3.43-1.74-5.18-5.15-5.18H293.08c-2,0-4,0-6,0a4.25,4.25,0,0,0-4.26,3.77c-.37,3-.05,6-.17,9.07"
        transform="translate(-40.47 -4.36)"/>
  <path class="cls-9"
        d="M303.32,298.33a27.69,27.69,0,1,1-27.7,28.19,27.75,27.75,0,0,1,27.7-28.19m24,27.79a24,24,0,1,0-24.41,24,24,24,0,0,0,24.41-24"
        transform="translate(-40.47 -4.36)"/>
  <path class="cls-9"
        d="M303.28,311.65h13.63c1.65,0,2.25.6,2.25,2.26,0,2,0,3.95,0,5.93,0,1.5-.67,2.16-2.18,2.16H289.63c-1.55,0-2.16-.61-2.17-2.14,0-2.07,0-4.15,0-6.22a1.74,1.74,0,0,1,2-2h13.82m10.5,6.79c1.81,0,1.81,0,1.81-1.76,0-1.5,0-1.5-1.9-1.5-1.66,0-1.66,0-1.66,1.62s0,1.64,1.75,1.64m-21-3.33c-1.87,0-1.87,0-1.87,1.42,0,2,0,2,2.1,2,1.62,0,1.62,0,1.62-1.57,0-1.83,0-1.83-1.85-1.83m12.26,1.65c0,1.75,0,1.75,1.71,1.75h.1c1.58,0,1.58,0,1.58-1.6,0-1.8,0-1.8-1.77-1.8s-1.62,0-1.62,1.65m-3.51,0c0-1.66,0-1.66-1.62-1.66s-1.74,0-1.74,1.74,0,1.66,1.62,1.66,1.74,0,1.74-1.74"
        transform="translate(-40.47 -4.36)"/>
  <path class="cls-9"
        d="M303.3,342.81H292.43c-1.62,0-2.21-.59-2.21-2.19,0-2,0-4.09,0-6.13,0-1.42.63-2,2.06-2h22.05c1.43,0,2.07.63,2.08,2,0,2.11,0,4.22,0,6.33a1.79,1.79,0,0,1-2,2H303.3m-.07-3.46h7.21c2.54,0,2.51,0,2.54-2.56,0-.76-.23-.92-1-.91-5.26,0-10.53,0-15.79,0-.81,0-1.87-.36-2.38.15s-.09,1.62-.19,2.45.21.87.88.86c2.89,0,5.79,0,8.68,0"
        transform="translate(-40.47 -4.36)"/>
  <path class="cls-9"
        d="M303.23,325.36h18.18a3.31,3.31,0,0,1,1.17.11,1.6,1.6,0,0,1,1.17,1.83,1.77,1.77,0,0,1-1.49,1.7,5.23,5.23,0,0,1-.79,0H285.12c-.61,0-1.28.09-1.71-.5a1.84,1.84,0,0,1,1.55-3.19h18.27"
        transform="translate(-40.47 -4.36)"/>
  <path class="cls-10"
        d="M313.78,318.44c-1.75,0-1.75,0-1.75-1.64s0-1.62,1.66-1.62c1.91,0,1.91,0,1.91,1.5,0,1.76,0,1.76-1.82,1.76"
        transform="translate(-40.47 -4.36)"/>
  <path class="cls-3"
        d="M500.63,186.16a10.36,10.36,0,1,1-10.36-10.35,10.35,10.35,0,0,1,10.36,10.35"
        transform="translate(-40.47 -4.36)"/>
  <line class="cls-3"
        x1="449.81"
        y1="168"
        x2="449.81"
        y2="161.1"/>
  <path class="cls-3"
        d="M490.27,174a1.66,1.66,0,0,1-1.66-1.66v-6.9a1.67,1.67,0,1,1,3.33,0v6.9a1.66,1.66,0,0,1-1.67,1.66"
        transform="translate(-40.47 -4.36)"/>
  <line class="cls-3"
        x1="463.61"
        y1="181.8"
        x2="470.51"
        y2="181.8"/>
  <path class="cls-3"
        d="M511,187.83h-6.9a1.67,1.67,0,1,1,0-3.34H511a1.67,1.67,0,0,1,0,3.34"
        transform="translate(-40.47 -4.36)"/>
  <line class="cls-3"
        x1="436.01"
        y1="181.8"
        x2="429.1"
        y2="181.8"/>
  <path class="cls-3"
        d="M476.47,187.83h-6.9a1.67,1.67,0,0,1,0-3.34h6.9a1.67,1.67,0,1,1,0,3.34"
        transform="translate(-40.47 -4.36)"/>
  <line class="cls-3"
        x1="459.57"
        y1="172.04"
        x2="464.45"
        y2="167.16"/>
  <path class="cls-3"
        d="M500,178.07a1.67,1.67,0,0,1-1.17-2.85l4.88-4.88a1.67,1.67,0,0,1,2.35,2.36l-4.88,4.88a1.67,1.67,0,0,1-1.18.49"
        transform="translate(-40.47 -4.36)"/>
  <line class="cls-3"
        x1="440.05"
        y1="172.04"
        x2="435.17"
        y2="167.16"/>
  <path class="cls-3"
        d="M480.51,178.07a1.67,1.67,0,0,1-1.17-.49l-4.88-4.88a1.67,1.67,0,1,1,2.35-2.36l4.88,4.88a1.67,1.67,0,0,1-1.18,2.85"
        transform="translate(-40.47 -4.36)"/>
  <polygon class="cls-3"
           points="436.01 197.97 448.73 197.97 448.73 209.63 434.07 209.63 436.01 197.97"/>
  <polygon class="cls-3"
           points="463.1 197.97 450.38 197.97 450.38 209.63 465.04 209.63 463.1 197.97"/>
  <polygon class="cls-3"
           points="475.13 197.97 464.76 197.97 466.91 209.63 481.37 209.63 475.13 197.97"/>
  <polygon class="cls-3"
           points="423.69 197.97 434.07 197.97 431.91 209.63 417.46 209.63 423.69 197.97"/>
  <polygon class="cls-3"
           points="467.26 222.47 450.38 222.47 450.38 210.81 465.21 210.81 467.26 222.47"/>
  <polygon class="cls-3"
           points="486.49 222.47 470.04 222.47 467.26 210.81 481.72 210.81 486.49 222.47"/>
  <polygon class="cls-3"
           points="431.84 222.47 448.73 222.47 448.73 210.81 433.9 210.81 431.84 222.47"/>
  <polygon class="cls-3"
           points="412.62 222.47 429.07 222.47 431.84 210.81 417.39 210.81 412.62 222.47"/>
  <path class="cls-11"
        d="M488.83,281.19a71.84,71.84,0,1,1,71.84-71.84,71.84,71.84,0,0,1-71.84,71.84m0-137.67a65.83,65.83,0,1,0,65.83,65.83,65.83,65.83,0,0,0-65.83-65.83"
        transform="translate(-40.47 -4.36)"/>
  <text class="cls-12"
        transform="translate(422.66 248.18) scale(1.01 1)">4.0 kW
  </text>
  <path class="cls-4"
        d="M344.7,76,324.91,46.36s0,0,0,0a1.22,1.22,0,0,0-1-.52H284.32a1.23,1.23,0,0,0-1,.55L263.51,76a1.24,1.24,0,0,0,1,1.92H267V89a1.23,1.23,0,0,0,1.24,1.24H340A1.23,1.23,0,0,0,341.19,89V75.24l1.45,2.16a1.23,1.23,0,0,0,1,.55,1.2,1.2,0,0,0,.68-.2A1.24,1.24,0,0,0,344.7,76M299.16,87.8H269.48V78h29.68Zm39.56-15.72V87.8H301.63V78h2.47l.2,0h.06a1.11,1.11,0,0,0,.39-.16l.07-.05a1,1,0,0,0,.31-.31l18.75-28.13,14.93,22.38a1.27,1.27,0,0,0-.09.43"
        transform="translate(-40.47 -4.36)"/>
  <path class="cls-4"
        d="M314.85,69.54V81.9a1.24,1.24,0,0,0,1.24,1.24h14.84a1.23,1.23,0,0,0,1.23-1.24V69.54a1.24,1.24,0,0,0-1.23-1.24H316.09a1.25,1.25,0,0,0-1.24,1.24m9.89,1.23h4.95v9.9h-4.95Zm-7.41,0h4.94v9.9h-4.94Z"
        transform="translate(-40.47 -4.36)"/>
  <path class="cls-13"
        d="M112.31,281.19a71.84,71.84,0,1,1,71.84-71.84,71.84,71.84,0,0,1-71.84,71.84m0-137.67a65.83,65.83,0,1,0,65.83,65.83,65.83,65.83,0,0,0-65.83-65.83"
        transform="translate(-40.47 -4.36)"/>
  <path class="cls-5"
        d="M75.83,229.15a1,1,0,0,0,.65.95,2.81,2.81,0,0,0,.91.11c4.14,0,9,0,13.73,0l43.1,0h12.93a1.1,1.1,0,0,0,1-1.05,1.12,1.12,0,0,0-1-1.07H143.7c-2.85,0-5.79,0-8.69,0h0a1.49,1.49,0,0,1-1.63-1.19c-2.37-7.45-4.79-15-7.14-22.33l-2.34-7.29a3.71,3.71,0,0,1-.13-.53c0-.07,0-.15,0-.23l-.15-.62h10v3.46a1,1,0,0,0,.71,1.1,1,1,0,0,0,.9-.07,1.31,1.31,0,0,0,.51-1.06c0-.66,0-1.34,0-2,0-.3,0-.6,0-.9v-.51h2.58v1.38q0,.94,0,1.86a1.57,1.57,0,0,0,.37,1.13,1,1,0,0,0,.69.25c.87,0,1-.85,1-1.34s0-.73,0-1.09c0-1,.06-2.12,0-3.16a1.85,1.85,0,0,0-.65-1.14c-2.94-2.19-5.95-4.37-8.87-6.49-.92-.66-1.84-1.32-2.75-2l-.82-.6-1.73-1.28h8v1.42c0,.69,0,1.33,0,2a1.07,1.07,0,0,0,.86,1.15,1,1,0,0,0,.84-.18,1.31,1.31,0,0,0,.42-1c0-.66,0-1.34,0-2,0-.3,0-.6,0-.89v-.51h2.39l.1.37a.46.46,0,0,0,0,.09,1,1,0,0,1,0,.26c0,.43,0,.85,0,1.27s0,.79,0,1.18c0,.93.35,1.4,1,1.42a1,1,0,0,0,.7-.24,1.71,1.71,0,0,0,.37-1.21v-1.3c0-.85,0-1.72,0-2.59a1.48,1.48,0,0,0-.67-1.43c-6-4.31-11.22-8.13-16.08-11.68a4.31,4.31,0,0,1-1.12-1.27c-2-3.51-3.83-6.64-5.48-9.57a1.56,1.56,0,0,0-1.57-.94c-2.25,0-4.58,0-6.93,0a1.55,1.55,0,0,0-1.58.91c-1.91,3.41-3.66,6.47-5.36,9.36a5.83,5.83,0,0,1-1.51,1.69c-2.3,1.68-4.64,3.39-6.91,5-2.93,2.14-6,4.34-8.93,6.53a1.81,1.81,0,0,0-.63,1.15,30.66,30.66,0,0,0,0,3.18c0,.35,0,.71,0,1.06s.16,1.31,1,1.31h0c.9,0,1-.83,1-1.32s0-1.26,0-1.9c0-.29,0-.58,0-.88v-.51H88.3v1.4c0,.66,0,1.28,0,1.91,0,.81.41,1.3,1.06,1.3h0c.93,0,1-.93,1.05-1.32,0-.64,0-1.28,0-1.91v-1.35h7.82l-1,.89-.19.16a2.39,2.39,0,0,1-.26.21l-2.53,1.84-9.87,7.16c-.55.39-.76.72-.76,1.16,0,1.53,0,3,.06,4.45a1.39,1.39,0,0,0,.36,1,1,1,0,0,0,.7.25c.63,0,1-.49,1-1.27s0-1.28,0-2c0-.29,0-.59,0-.89v-.51H88.3v3.23c0,.88.42,1.4,1.07,1.4h0c1,0,1.06-1.07,1.06-1.4q0-.94,0-1.89v-1.36h10.16l-.15.63c0,.08,0,.15,0,.23s-.07.32-.12.48l-2.35,7.32c-2.35,7.37-4.79,15-7.18,22.48a1.34,1.34,0,0,1-1.46,1.06H77.47a3.18,3.18,0,0,0-1,.12.91.91,0,0,0-.64.94m20-1.12,1.89-.89,1.29-.62,2-1,2.18-1c2.72-1.29,5.53-2.62,8.31-3.9a2.17,2.17,0,0,1,1.66-.06c3.65,1.69,7.35,3.44,10.92,5.13l2.31,1.09.27.16.24.15,2.31.94Zm15.76-50.42a1.25,1.25,0,0,1,1.12.12l3,1.81,1.26.77,1.62.88h-12.8l1.52-.94,1-.63c1.14-.71,2.22-1.37,3.3-2m-1.45-3.92c-.57-.38-1.13-.78-1.76-1.15l-.86-.51-.36-.22-1.54-.86h13.2l-1.83.82-.42.25c-.28.18-.57.35-.86.51-.63.37-1.2.78-1.77,1.16a2.7,2.7,0,0,1-3.8,0M112,187.06a1.42,1.42,0,0,1-.68-.17c-1-.58-2-1.18-3-1.82l-1.07-.65-1.52-.94h12.46l-1.52.94-1.06.65c-1,.65-2,1.26-3,1.85a1.07,1.07,0,0,1-.57.14m3.66,5,1,.64,1.52.93H105.77l2.56-1.57c1.07-.67,2.08-1.29,3.09-1.89a1.17,1.17,0,0,1,1.12,0c1,.61,2.07,1.26,3.16,1.93m-5.7-3.52-7,4.33v-8.64Zm10.49,7.38-2.73,1.76c-1.65,1.06-3.2,2.06-4.77,3a1.13,1.13,0,0,1-.62.17,1,1,0,0,1-.51-.13c-1.59-1-3.17-2-4.83-3.1l-2.71-1.74Zm-7.36,8.17c2.62,1.71,5.29,3.44,7.88,5.11l2.92,1.88a1.5,1.5,0,0,1,.24.2l.14.12.77.47-2.91,1.33c-3.15,1.5-6.12,2.9-9.16,4.33a1.56,1.56,0,0,1-1.2,0c-3-1.42-6-2.83-9.18-4.32l-2.94-1.3.81-.53.23-.17a4.13,4.13,0,0,1,.42-.31l4.73-3,5.65-3.65a1.3,1.3,0,0,1,1.6-.11m13.68,9.26,4.26,13.3L114.88,219ZM123.34,172,136,181.19H123.34Zm-.07,12.45,12.7,9.24h-12.7Zm2.36,25.23-11.28-7.26,7.41-4.78Zm-4.57-16.78-7-4.32,7-4.33Zm0-12.5-7-4.31,7-4.33ZM104.19,168l.09-.2a4.28,4.28,0,0,1,.2-.44l1.25-2.2c.82-1.43,1.67-2.91,2.48-4.37a1.48,1.48,0,0,1,1.44-.85c.81,0,1.64,0,2.45,0s1.56,0,2.34,0a1.5,1.5,0,0,1,1.18.58c1.13,1.92,2.21,3.82,3.36,5.84l1.33,2.33H103.87Zm-1.25,3.72,7.06,4.33-7.06,4.35Zm-14.85,9.49,1-.78L100.66,172v9.23Zm0,12.45,12.69-9.24v9.24Zm14.43,3.59,8,5.13-11,7.09-1.32,1Zm-5.07,15.82L109.93,219l-17,8Z"
        transform="translate(-40.47 -4.36)"/>
  <text class="cls-14"
        transform="translate(44.6 248.18) scale(1.01 1)">2.0 kW
  </text>
</svg>
